<?xml version="1.0" encoding="UTF-8"?><!DOCTYPE svg PUBLIC "-//W3C//DTD SVG 1.1//EN" "http://www.w3.org/Graphics/SVG/1.1/DTD/svg11.dtd"><svg xmlns="http://www.w3.org/2000/svg"><symbol id="arrow-down" viewBox="0 0 20 20"><title>arrow-down</title><path d="M2.49 4.38A1.5 1.5 0 0 0 .38 6.5l9.56 9.56L19.5 6.5a1.5 1.5 0 0 0-2.12-2.12l-7.44 7.45z"/></symbol><symbol id="arrow-left" viewBox="0 0 20 20"><title>arrow-left</title><path d="M15.67 2.55A1.5 1.5 0 0 0 14.61 0a1.48 1.48 0 0 0-1.05.44L4 10l9.56 9.56a1.5 1.5 0 0 0 2.12-2.12L8.23 10z"/></symbol><symbol id="arrow-right" viewBox="0 0 20 20"><title>arrow-right</title><path d="M4.32 17.44a1.5 1.5 0 0 0 2.11 2.12L16 10 6.44.44a1.5 1.5 0 0 0-2.12 2.11L11.77 10z"/></symbol><symbol id="arrow-up" viewBox="0 0 20 20"><title>arrow-up</title><path d="M17.5 15.61a1.5 1.5 0 0 0 2.55-1.06 1.48 1.48 0 0 0-.44-1.05l-9.55-9.56L.5 13.5a1.5 1.5 0 1 0 2.12 2.12l7.44-7.44z"/></symbol><symbol id="calendar" viewBox="0 0 20 20"><title>calendar</title><path d="M6.75 7.5h2.5V10h-2.5zm3.75 0H13V10h-2.5zm3.75 0h2.5V10h-2.5zM3 15h2.5v2.5H3zm3.75 0h2.5v2.5h-2.5zm3.75 0H13v2.5h-2.5zm-3.75-3.75h2.5v2.5h-2.5zm3.75 0H13v2.5h-2.5zm3.75 0h2.5v2.5h-2.5zM3 11.25h2.5v2.5H3zM16.75 0v1.25h-2.5V0H5.5v1.25H3V0H.5v20h18.75V0zM18 18.75H1.75V5H18z"/></symbol><symbol id="close" viewBox="0 0 20 20"><title>close</title><path d="M19.54 16.44L13.09 10l6.44-6.44a2 2 0 0 0-.26-2.84 2 2 0 0 0-2.83-.25L10 6.91 3.56.47A2 2 0 0 0 .72.72a2 2 0 0 0-.25 2.84L6.9 10 .47 16.44a2 2 0 0 0 .26 2.84 2 2 0 0 0 2.84.25L10 13.09l6.43 6.44a2 2 0 0 0 2.84-.26 2 2 0 0 0 .27-2.83z"/></symbol><symbol id="folder" viewBox="0 0 20 20"><title>folder</title><path d="M16.25 18.25l3.75-10H3.75L0 18.25zM2.5 7L0 18.25V2h5.63l2.5 2.5h8.13V7z"/></symbol><symbol id="mail" viewBox="0 0 20 20"><title>mail</title><path d="M6.86 13.07L.85 9.06 10 1.67l9.15 7.39-6.01 4.01 6.86 6V8.49L10 0 0 8.49v10.58l6.86-6z"/><path d="M18.87 19.74l-7.14-6.25H8.27l-7.14 6.25h17.74z"/></symbol><symbol id="marker" viewBox="0 0 20 20"><title>marker</title><path d="M10 0a6.25 6.25 0 0 0-6.25 6.25C3.75 12.22 10 20 10 20s6.25-7.78 6.25-13.75A6.25 6.25 0 0 0 10 0zm0 9.7a3.37 3.37 0 1 1 3.37-3.37A3.38 3.38 0 0 1 10 9.7z"/></symbol><symbol id="phone" viewBox="0 0 20 20"><title>phone</title><path d="M14.67 12c-1.33 1.33-1.33 2.67-2.67 2.67S9.33 13.33 8 12 5.33 9.33 5.33 8 6.67 6.67 8 5.33 5.33 0 4 0 0 4 0 4c0 2.67 2.74 8.07 5.33 10.67S13.33 20 16 20c0 0 4-2.67 4-4s-4-5.33-5.33-4"/></symbol><symbol id="play-btn" viewBox="0 0 20 20"><title>play-btn</title><path d="M10 0a10 10 0 1 0 10 10A10 10 0 0 0 10 0m0 18.13A8.13 8.13 0 1 1 18.13 10 8.12 8.12 0 0 1 10 18.13M7.5 5.63L15 10l-7.5 4.38z"/></symbol><symbol id="quotes-close" viewBox="0 0 20 20"><title>quotes-close</title><path d="M3.48 17.38A15.37 15.37 0 0 1 0 18.2v-4c2.15-.73 2.79-1.78 2.84-4.07H0V1.5h8.38v6.91c0 3.98-.92 7.28-4.9 8.97zm11.62 0a15 15 0 0 1-3.43.82v-4c2.15-.73 2.79-1.78 2.84-4.07h-2.84V1.5H20v6.91c0 3.98-.92 7.28-4.9 8.97z"/></symbol><symbol id="quotes-open" viewBox="0 0 20 20"><title>quotes-open</title><path d="M0 18.25v-6.86c0-4 .87-7.32 4.9-9a14.9 14.9 0 0 1 3.47-.89v4.07c-2.2.69-2.79 1.83-2.84 4.07h2.84v8.6zm11.67 0v-6.86c0-4.07.87-7.28 4.9-9A15.11 15.11 0 0 1 20 1.5v4.07c-2.2.69-2.79 1.83-2.84 4.07H20v8.6z"/></symbol><symbol id="search" viewBox="0 0 20 20"><title>search</title><path d="M19.55 16.92l-4.78-4.78a7.8 7.8 0 0 0 1.14-4.06A8.25 8.25 0 0 0 7.83 0 7.83 7.83 0 0 0 0 7.83a8.25 8.25 0 0 0 8.08 8.07A7.86 7.86 0 0 0 12 14.84l4.81 4.8a1.19 1.19 0 0 0 1.7 0l1.19-1.19c.49-.45.3-1.06-.15-1.53zM2.41 7.83a5.42 5.42 0 0 1 5.42-5.42 5.84 5.84 0 0 1 5.66 5.66 5.42 5.42 0 0 1-5.42 5.42 5.84 5.84 0 0 1-5.66-5.66z"/></symbol><symbol id="tags" viewBox="0 0 20 20"><title>tags</title><path d="M18.22 2h-4.14a5 5 0 0 0-3 1.26l-7 7a1.78 1.78 0 0 0 0 2.51l5.19 5.19a1.78 1.78 0 0 0 2.51 0l7-7a4.94 4.94 0 0 0 1.26-3V3.78A1.78 1.78 0 0 0 18.22 2m-2.37 5.93a1.78 1.78 0 1 1 1.78-1.78 1.78 1.78 0 0 1-1.78 1.78m-14.39 4l6.34 6.31a1.79 1.79 0 0 1-2.09-.31L.52 12.74a1.78 1.78 0 0 1 0-2.51l7-7a5 5 0 0 1 3-1.26l-9.06 9.09a.59.59 0 0 0 0 .84"/></symbol><symbol id="triangle-down" viewBox="0 0 20 20"><title>triangle-down</title><path d="M10 17.03L0 3h20L10 17.03z"/></symbol><symbol id="triangle-left" viewBox="0 0 20 20"><title>triangle-left</title><path d="M2.97 10L17 0v20L2.97 10z"/></symbol><symbol id="triangle-right" viewBox="0 0 20 20"><title>triangle-right</title><path d="M17.03 10L3 20V0l14.03 10z"/></symbol><symbol id="triangle-up" viewBox="0 0 20 20"><title>triangle-up</title><path d="M10 2.97L20 17H0L10 2.97z"/></symbol></svg>