<svg id="Icons" xmlns="http://www.w3.org/2000/svg" viewBox="0 0 20 20"><title>earth-grid</title><path id="earth-grid" d="M10,0A10,10,0,1,0,20,10,10,10,0,0,0,10,0m5.66,13.33A15.91,15.91,0,0,0,16,10.67h2.66A8.59,8.59,0,0,1,18,13.33ZM4.34,6.67A15.93,15.93,0,0,0,4,9.33H1.36A8.57,8.57,0,0,1,2,6.67Zm10,0a14.42,14.42,0,0,1,.36,2.67h-4V6.67ZM10.67,5.33V1.43a3.05,3.05,0,0,1,.9.45A5.72,5.72,0,0,1,13.1,3.61a9.65,9.65,0,0,1,.8,1.72ZM6.9,3.61A5.73,5.73,0,0,1,8.43,1.87a3.07,3.07,0,0,1,.9-.45v3.9H6.1a9.57,9.57,0,0,1,.8-1.72M9.33,6.67V9.33h-4a14.38,14.38,0,0,1,.36-2.67ZM2,13.33a8.59,8.59,0,0,1-.64-2.67H4a16,16,0,0,0,.33,2.67Zm3.35-2.67h4v2.67H5.71a14.4,14.4,0,0,1-.36-2.67m4,4v3.9a3,3,0,0,1-.9-.45A5.73,5.73,0,0,1,6.9,16.38a9.59,9.59,0,0,1-.8-1.72Zm3.77,1.72a5.74,5.74,0,0,1-1.53,1.74,3.09,3.09,0,0,1-.9.45v-3.9H13.9a9.71,9.71,0,0,1-.8,1.72m-2.43-3.05V10.67h4a14.45,14.45,0,0,1-.36,2.67Zm5.32-4a15.93,15.93,0,0,0-.33-2.67H18a8.57,8.57,0,0,1,.64,2.67Zm1.32-4h-2a10.57,10.57,0,0,0-1.57-3.16,8.73,8.73,0,0,1,3.57,3.16M3.87,3.87A8.64,8.64,0,0,1,6.26,2.18,10.59,10.59,0,0,0,4.69,5.33h-2A8.58,8.58,0,0,1,3.87,3.87M2.69,14.67h2a10.58,10.58,0,0,0,1.57,3.15,8.75,8.75,0,0,1-3.57-3.15m13.43,1.46a8.65,8.65,0,0,1-2.39,1.69,10.58,10.58,0,0,0,1.57-3.15h2a8.64,8.64,0,0,1-1.18,1.46"/></svg>