<svg id="Icons" xmlns="http://www.w3.org/2000/svg" viewBox="0 0 20 20"><title>earth</title><path id="earth" d="M17.07,2.93A10,10,0,0,1,2.93,17.07,10,10,0,0,1,17.07,2.93m-.89,13.26a8.7,8.7,0,0,0,2.39-4.44c-.26.39-.52.53-.67-.34-.16-1.41-1.46-.51-2.28-1-.86.58-2.79-1.13-2.46.8.51.87,2.73-1.16,1.62.68-.71,1.28-2.59,4.12-2.35,5.59,0,2.14-2.19.45-3-.26C9,15.78,9.31,13.29,8,12.59c-1.46-.06-2.71-.2-3.28-1.83A2.66,2.66,0,0,1,6.3,7.58C8.13,6.43,8.79,8.93,10.51,9c.53-.56,2-.74,2.11-1.36-1.13-.2,1.43-.95-.11-1.37-.85.1-1.4.88-.94,1.54-1.65.38-1.7-2.38-3.28-1.51,0,1.38-2.58.45-.88.17.59-.25-1-1-.12-.86.41,0,1.78-.5,1.41-.83.77-.48,1.41,1.14,2.16,0,.54-.9-.23-1.07-.9-.61-.38-.43.67-1.35,1.61-1.75a1.86,1.86,0,0,1,.83-.19c.47.54,1.34.64,1.38-.06a8.77,8.77,0,0,0-9,.87c.4.19.63.42.24.71-.3.9-1.53,2.11-2.6,1.94A8.69,8.69,0,0,0,1.34,8.76c.9.3,1.11.89.91,1.09a3,3,0,0,0-.89,1.59,8.75,8.75,0,0,0,14.82,4.76"/></svg>