<svg id="Icons" xmlns="http://www.w3.org/2000/svg" viewBox="0 0 20 20"><title>group-2</title><g id="group-2"><path d="M14,15.64c-.65-.66-3.24-1.32-4.53-2a2.49,2.49,0,0,1-1.3-2.2,1.74,1.74,0,0,1,.53-1.06,3.23,3.23,0,0,0,.54-1A1.24,1.24,0,0,0,10,8.12a1.65,1.65,0,0,0-.24-1c.06-.45.11-.91.15-1.38A3.78,3.78,0,0,0,6.21,2,3.78,3.78,0,0,0,2.54,5.73c0,.47.09.93.15,1.38a1.64,1.64,0,0,0-.24,1,1.25,1.25,0,0,0,.76,1.27,3.27,3.27,0,0,0,.54,1,1.7,1.7,0,0,1,.52,1.06A2.5,2.5,0,0,1,3,13.66c-.76.39-2,.78-3,1.17v2.8H14.64A3.6,3.6,0,0,0,14,15.64Z"/><path d="M20,15.37c-.84-.33-1.88-.66-2.53-1a2,2,0,0,1-1.06-1.8,1.4,1.4,0,0,1,.43-.86,2.52,2.52,0,0,0,.44-.82,1,1,0,0,0,.62-1A1.31,1.31,0,0,0,17.69,9c.05-.37.09-.75.12-1.13a3.16,3.16,0,0,0-3-3.14,3.16,3.16,0,0,0-3,3.14c0,.38.07.76.12,1.13a1.3,1.3,0,0,0-.19.82,1,1,0,0,0,.62,1,2.77,2.77,0,0,0,.44.82,1.4,1.4,0,0,1,.44.87,2.1,2.1,0,0,1-.46,1.29A5.34,5.34,0,0,1,15,15.23a4,4,0,0,1,.78,2.4H20V15.37Z"/></g></svg>