<svg id="Icons" xmlns="http://www.w3.org/2000/svg" viewBox="0 0 20 20"><title>group-3</title><g id="group-3"><path d="M15.63,16.23c-.21-1-1.74-2.27-4.21-2.64v-.91a4.78,4.78,0,0,0,1.41-3.49c0-2-.71-3.58-2.83-3.58S7.17,7.21,7.17,9.19a4.78,4.78,0,0,0,1.41,3.49v.91c-2.47.37-4,1.64-4.21,2.64h0a.27.27,0,0,0,0,.08l.08.16c.44.59,2.46,1.31,5.56,1.31s5.11-.72,5.56-1.31l.08-.16a.27.27,0,0,0,0-.08Z"/><path d="M20,12.8c-.2-.92-1.6-2.1-3.89-2.44V9.53A4.4,4.4,0,0,0,17.39,6.3c0-1.82-.65-3.3-2.61-3.3-1.63,0-2,.29-2.25,1.88a5.11,5.11,0,0,1,1.64,4.23A5.59,5.59,0,0,1,13,13c.87,0,2,1.13,2.85,1.79,2.94-.08,3.63-1.24,4-1.76l.07-.14a.27.27,0,0,0,0-.08Z"/><path d="M5.22,3c-2,0-2.61,1.48-2.61,3.3A4.4,4.4,0,0,0,3.91,9.53v.84C1.63,10.71.22,11.88,0,12.8H0a.31.31,0,0,0,0,.08L.09,13c.39.52,1.08,1.68,4,1.76C4.92,14.13,6.09,13,7,13A5.59,5.59,0,0,1,5.83,9.11,5.11,5.11,0,0,1,7.47,4.88C7.25,3.29,6.85,3,5.22,3Z"/></g></svg>