<svg id="Icons" xmlns="http://www.w3.org/2000/svg" viewBox="0 0 20 20"><title>houzz</title><g id="houzz"><polygon points="4 10 4 10 4 10 9.78 6.67 9.78 0 4 3.33 4 10 4 10 4 10" fill="#7bc043"/><polygon points="9.78 13.34 4 10 4 10 4 16.67 9.78 13.34 9.78 13.34 9.78 13.34" fill="#7bc043"/><polygon points="15.55 10 9.78 13.34 9.78 13.34 9.78 13.34 9.78 20 9.79 20 15.55 16.67 15.55 10" fill="#7bc043"/><polygon points="15.55 10 15.55 3.33 9.78 6.67 15.55 10" fill="#7bc043"/><polygon points="9.78 13.34 15.55 10 9.78 6.67 9.78 13.34"/></g></svg>