<svg id="Icons" xmlns="http://www.w3.org/2000/svg" viewBox="0 0 20 20"><title>instagram</title><g id="instagram"><path d="M14.48,0h-9A5.53,5.53,0,0,0,0,5.52v9A5.53,5.53,0,0,0,5.52,20h9A5.53,5.53,0,0,0,20,14.48v-9A5.53,5.53,0,0,0,14.48,0Zm3.74,14.48a3.75,3.75,0,0,1-3.74,3.74h-9a3.75,3.75,0,0,1-3.74-3.74v-9A3.75,3.75,0,0,1,5.52,1.77h9a3.75,3.75,0,0,1,3.74,3.74Zm0,0" fill="#c536a3"/><path d="M10,4.85A5.15,5.15,0,1,0,15.15,10,5.16,5.16,0,0,0,10,4.85Zm0,8.53A3.38,3.38,0,1,1,13.38,10,3.38,3.38,0,0,1,10,13.38Zm0,0" fill="#c536a3"/><path d="M15.37,3.34a1.3,1.3,0,1,0,.92.38,1.31,1.31,0,0,0-.92-.38Zm0,0" fill="#c536a3"/></g></svg>