<svg id="Icons" xmlns="http://www.w3.org/2000/svg" viewBox="0 0 20 20"><title>linkedin-square</title><path id="linkedin-square" d="M18.41,0H1.47A1.45,1.45,0,0,0,0,1.43V18.57A1.45,1.45,0,0,0,1.47,20H18.41a1.45,1.45,0,0,0,1.47-1.43V1.43A1.45,1.45,0,0,0,18.41,0ZM6,16.74H3v-9H6ZM4.52,6.48h0a1.56,1.56,0,1,1,0-3.12,1.57,1.57,0,1,1,0,3.12ZM16.85,16.74h-3V11.91c0-1.21-.43-2-1.52-2A1.64,1.64,0,0,0,10.79,11a2,2,0,0,0-.1.73v5h-3s0-8.19,0-9h3V9A3,3,0,0,1,13.39,7.5c2,0,3.46,1.29,3.46,4.07Z" fill="#2a84b5"/></svg>