<svg id="Icons" xmlns="http://www.w3.org/2000/svg" viewBox="0 0 20 20"><title>pinterest-round</title><g id="pinterest-round"><path d="M10,0A10,10,0,1,1,0,10,10,10,0,0,1,10,0Zm0,0" fill="#c8232c"/><path d="M10.3,4.38C6.78,4.38,5,6.83,5,8.86a2.75,2.75,0,0,0,1.52,2.74.26.26,0,0,0,.37-.18L7,10.85a.34.34,0,0,0-.11-.4A2,2,0,0,1,6.45,9,3.46,3.46,0,0,1,10.1,5.6c2,0,3.09,1.18,3.09,2.75,0,2.07-.95,3.82-2.35,3.82a1.12,1.12,0,0,1-1.17-1.38,15,15,0,0,0,.66-2.55,1,1,0,0,0-1-1.08C8.53,7.16,7.89,8,7.89,9a2.69,2.69,0,0,0,.24,1.14l-1,3.91a7.81,7.81,0,0,0,0,2.73.1.1,0,0,0,.18,0,7.61,7.61,0,0,0,1.34-2.35c.09-.32.52-2,.52-2a2.14,2.14,0,0,0,1.81.9c2.38,0,4-2.1,4-4.92,0-2.13-1.86-4.11-4.7-4.11Zm0,0" fill="#fff"/></g></svg>