<svg id="Icons" xmlns="http://www.w3.org/2000/svg" viewBox="0 0 20 20"><title>question</title><path id="help" d="M9.87,0A10,10,0,1,0,20,9.87,10,10,0,0,0,9.87,0Zm0,16.09H9.78a1.45,1.45,0,0,1,0-2.91h0a1.46,1.46,0,1,1,0,2.91ZM13.41,9a6.58,6.58,0,0,1-1.19,1.07l-.61.42a1.66,1.66,0,0,0-.61.74,1.54,1.54,0,0,0-.09.63v.1H8.57v-.2A2.53,2.53,0,0,1,9,10.07a9.89,9.89,0,0,1,1.74-1.4,1.83,1.83,0,0,0,.41-.42,1.49,1.49,0,0,0,.35-.87,1.68,1.68,0,0,0-.32-1A1.33,1.33,0,0,0,10,6a1.26,1.26,0,0,0-1.16.54,2.17,2.17,0,0,0-.35,1.17v.1H6.07V7.66A3.66,3.66,0,0,1,7.64,4.5,4.13,4.13,0,0,1,9.9,3.91a4.86,4.86,0,0,1,2.92.84A2.91,2.91,0,0,1,14,7.26,2.87,2.87,0,0,1,13.41,9Z"/></svg>