<svg id="Icons" xmlns="http://www.w3.org/2000/svg" viewBox="0 0 20 20"><title>tools</title><path id="tools" d="M3.11,6.77C4,6,4.82,6.55,5.86,7.75c.12.13.27,0,.36-.1L7.74,6.28a.19.19,0,0,0,0-.29c-.11-.12-.5-.63-.75-1C5.22,2.66,12,1,11,1c-.53,0-2.66,0-3,0-1.29.14-2.91,1.34-3.72,1.9A10.66,10.66,0,0,0,2.74,4.13c-.3.26,0,.87-.59,1.35s-.94.12-1.27.42c-.17.15-.63.49-.76.61A.32.32,0,0,0,.09,7L1.47,8.51A.44.44,0,0,0,2,8.58L2.75,8C2.83,7.89,2.7,7.09,3.11,6.77Zm5.73.52a.26.26,0,0,0-.4,0L7,8.52a.29.29,0,0,0,0,.4L15.3,18.4a.53.53,0,0,0,.75.05l1-.82a.54.54,0,0,0,.05-.76Zm11.11-4c-.07-.5-.33-.39-.46-.18s-.72,1.11-1,1.51A1.2,1.2,0,0,1,16.57,5c-1.15-.81-.75-1.38-.55-1.77s.82-1.46.91-1.6a.27.27,0,0,0-.37-.36c-.36.17-2.53,1-2.84,2.27S14,5.93,12.87,7L11.52,8.46,12.88,10l1.66-1.58a2.35,2.35,0,0,1,2-.61,2.46,2.46,0,0,0,3.07-1.26A7.26,7.26,0,0,0,19.94,3.26ZM2.71,17a.54.54,0,0,0,0,.76l1,.93a.53.53,0,0,0,.75-.09l4.93-4.85L7.83,12Z"/></svg>