<svg id="Icons" xmlns="http://www.w3.org/2000/svg" viewBox="0 0 20 20"><title>twitter</title><path id="twitter" d="M20,3.92a8.23,8.23,0,0,1-2.36.65,4.12,4.12,0,0,0,1.8-2.27,8.24,8.24,0,0,1-2.61,1A4.11,4.11,0,0,0,9.85,7,11.66,11.66,0,0,1,1.39,2.75,4.11,4.11,0,0,0,2.66,8.23,4.07,4.07,0,0,1,.8,7.71v.05a4.11,4.11,0,0,0,3.29,4A4.11,4.11,0,0,1,3,11.94a4.18,4.18,0,0,1-.77-.07,4.11,4.11,0,0,0,3.83,2.85A8.24,8.24,0,0,1,1,16.47a8.52,8.52,0,0,1-1-.06,11.63,11.63,0,0,0,6.29,1.84A11.6,11.6,0,0,0,18,6.58c0-.18,0-.35,0-.53A8.4,8.4,0,0,0,20,3.92Z" fill="#2aa9e0"/></svg>