<?xml version="1.0" encoding="utf-8"?>
<!-- Generator: Adobe Illustrator 21.1.0, SVG Export Plug-In . SVG Version: 6.00 Build 0)  -->
<!DOCTYPE svg PUBLIC "-//W3C//DTD SVG 1.1//EN" "http://www.w3.org/Graphics/SVG/1.1/DTD/svg11.dtd">
<svg version="1.1" id="Layer_1" xmlns="http://www.w3.org/2000/svg" xmlns:xlink="http://www.w3.org/1999/xlink" x="0px" y="0px"
	 viewBox="0 0 140 80" enable-background="new 0 0 140 80" xml:space="preserve">
<rect fill="#969696" width="140" height="80"/>
<g>
	<path fill="#FFFFFF" d="M25.9,50.07h12.98v4.51H20.05V25.42h5.85V50.07z"/>
	<path fill="#FFFFFF" d="M64.51,42.62c0,3.58-1.13,6.54-3.39,8.87c-2.26,2.34-5.2,3.5-8.82,3.5c-3.59,0-6.51-1.17-8.75-3.5
		c-2.24-2.34-3.36-5.29-3.36-8.87v-5.25c0-3.56,1.12-6.52,3.35-8.86c2.24-2.34,5.15-3.51,8.74-3.51c3.62,0,6.56,1.17,8.83,3.51
		c2.27,2.34,3.4,5.3,3.4,8.86V42.62z M58.66,37.35c0-2.27-0.57-4.14-1.7-5.6c-1.14-1.46-2.7-2.19-4.69-2.19s-3.53,0.73-4.63,2.18
		c-1.09,1.45-1.64,3.32-1.64,5.61v5.3c0,2.32,0.55,4.2,1.66,5.66c1.11,1.46,2.65,2.19,4.63,2.19c2,0,3.56-0.73,4.69-2.19
		c1.12-1.46,1.68-3.34,1.68-5.66V37.35z"/>
	<path fill="#FFFFFF" d="M91.47,50.59c-0.87,1.15-2.22,2.17-4.06,3.06C85.58,54.55,83.26,55,80.45,55c-3.56,0-6.47-1.11-8.73-3.32
		c-2.26-2.22-3.38-5.09-3.38-8.63v-6.09c0-3.52,1.08-6.4,3.25-8.62c2.17-2.22,4.96-3.33,8.38-3.33c3.55,0,6.27,0.86,8.16,2.59
		c1.89,1.73,2.85,4,2.89,6.82l-0.04,0.12h-5.51c-0.11-1.55-0.6-2.77-1.48-3.67c-0.88-0.9-2.17-1.35-3.87-1.35
		c-1.79,0-3.23,0.69-4.33,2.07c-1.09,1.38-1.64,3.16-1.64,5.33v6.12c0,2.21,0.57,4.01,1.7,5.39c1.13,1.38,2.66,2.07,4.59,2.07
		c1.36,0,2.46-0.14,3.28-0.42c0.83-0.28,1.46-0.63,1.88-1.04v-5.39h-5.17V39.6h11.01V50.59z"/>
	<path fill="#FFFFFF" d="M119.95,42.62c0,3.58-1.13,6.54-3.39,8.87c-2.26,2.34-5.2,3.5-8.82,3.5c-3.59,0-6.51-1.17-8.75-3.5
		c-2.24-2.34-3.37-5.29-3.37-8.87v-5.25c0-3.56,1.12-6.52,3.36-8.86c2.24-2.34,5.15-3.51,8.74-3.51c3.62,0,6.56,1.17,8.83,3.51
		c2.27,2.34,3.4,5.3,3.4,8.86V42.62z M114.1,37.35c0-2.27-0.57-4.14-1.7-5.6c-1.14-1.46-2.7-2.19-4.69-2.19s-3.53,0.73-4.63,2.18
		c-1.1,1.45-1.64,3.32-1.64,5.61v5.3c0,2.32,0.55,4.2,1.66,5.66c1.11,1.46,2.65,2.19,4.63,2.19c2,0,3.56-0.73,4.69-2.19
		c1.12-1.46,1.68-3.34,1.68-5.66V37.35z"/>
</g>
</svg>
